<svg width="16" height="16" viewBox="0 0 16 16" fill="none" xmlns="http://www.w3.org/2000/svg">
<g clip-path="url(#clip0_774_10222)">
<path d="M13.5556 0H2.44444C1.09689 0 0 1.09689 0 2.44444V13.5556C0 14.9031 1.09689 16 2.44444 16H13.5556C14.9031 16 16 14.9031 16 13.5556V2.44444C16 1.09689 14.9031 0 13.5556 0Z" fill="#EB4B07"/>
<path d="M13.7714 5.33593L6.46694 12.6404C6.31407 12.7933 6.11372 12.8694 5.91337 12.8694C5.71302 12.8694 5.51267 12.7933 5.35979 12.6404L2.22931 9.50992C1.92356 9.20417 1.92356 8.70903 2.22931 8.40329C2.53505 8.09755 3.03019 8.09755 3.33593 8.40329L5.91285 10.9802L12.6637 4.22931C12.9695 3.92356 13.4646 3.92356 13.7704 4.22931C14.0761 4.53505 14.0766 5.03019 13.7714 5.33593Z" fill="white"/>
</g>
<defs>
<clipPath id="clip0_774_10222">
<rect width="16" height="16" fill="white"/>
</clipPath>
</defs>
</svg>
