<svg xmlns="http://www.w3.org/2000/svg" width="6" height="10" viewBox="0 0 6 10" fill="none">
  <path d="M0.99564 0.596069C0.916067 0.59609 0.838308 0.619842 0.772304 0.664287C0.7063 0.708733 0.655051 0.771853 0.625108 0.845577C0.595165 0.919302 0.58789 1.00028 0.604211 1.07816C0.620533 1.15604 0.65971 1.22729 0.716734 1.28279L4.43392 4.99998L0.716734 8.71716C0.678344 8.75402 0.647695 8.79817 0.626581 8.84702C0.605467 8.89587 0.594312 8.94845 0.593771 9.00166C0.593229 9.05488 0.603312 9.10767 0.623427 9.15694C0.643543 9.20621 0.673288 9.25097 0.710919 9.2886C0.748551 9.32624 0.793313 9.35598 0.842584 9.3761C0.891855 9.39621 0.944644 9.40629 0.997861 9.40575C1.05108 9.40521 1.10365 9.39406 1.1525 9.37294C1.20135 9.35183 1.2455 9.32118 1.28236 9.28279L5.28236 5.28279C5.35735 5.20777 5.39947 5.10604 5.39947 4.99998C5.39947 4.89391 5.35735 4.79218 5.28236 4.71716L1.28236 0.717163C1.24508 0.678845 1.20051 0.648387 1.15126 0.627589C1.10201 0.60679 1.0491 0.596072 0.99564 0.596069Z" fill="#EB4B07"/>
</svg>