<svg width="24" height="24" viewBox="0 0 24 24" fill="none" xmlns="http://www.w3.org/2000/svg">
<path d="M12.0004 1.59998C11.7913 1.59999 11.5905 1.68188 11.441 1.8281L2.71445 8.9656C2.70437 8.97318 2.69448 8.98099 2.68477 8.98904L2.65508 9.01404V9.0156C2.57484 9.09035 2.51083 9.1808 2.46701 9.28132C2.4232 9.38185 2.40052 9.49031 2.40039 9.59998C2.40039 9.81215 2.48468 10.0156 2.63471 10.1657C2.78473 10.3157 2.98822 10.4 3.20039 10.4H4.00039V19.2C4.00039 20.084 4.71639 20.8 5.60039 20.8H18.4004C19.2844 20.8 20.0004 20.084 20.0004 19.2V10.4H20.8004C21.0126 10.4 21.216 10.3157 21.3661 10.1657C21.5161 10.0156 21.6004 9.81215 21.6004 9.59998C21.6005 9.49005 21.5779 9.38129 21.5341 9.28048C21.4903 9.17967 21.4261 9.08897 21.3457 9.01404L21.3332 9.00466C21.3157 8.98876 21.2974 8.97364 21.2785 8.95935L18.4004 6.60466V3.19998C18.4004 2.75838 18.042 2.39998 17.6004 2.39998H16.8004C16.3588 2.39998 16.0004 2.75838 16.0004 3.19998V4.64216L12.5426 1.81404C12.3952 1.67704 12.2016 1.6006 12.0004 1.59998ZM9.60039 12.8H14.4004V19.2H9.60039V12.8Z" fill="#EB4B07"/>
</svg>
