<svg width="20" height="20" viewBox="0 0 20 20" fill="none" xmlns="http://www.w3.org/2000/svg">
<path d="M14.1498 11.9261C13.8792 11.7674 13.5465 11.7707 13.2772 11.9307L11.9132 12.7434C11.6078 12.9254 11.2265 12.9041 10.9465 12.6854C10.4625 12.3074 9.68318 11.6714 9.00518 10.9934C8.32718 10.3154 7.69118 9.53607 7.31318 9.05207C7.09451 8.77207 7.07318 8.39073 7.25518 8.0854L8.06784 6.7214C8.22851 6.45207 8.22984 6.11673 8.07118 5.84607L6.06984 2.4274C5.87584 2.09673 5.49051 1.93407 5.11784 2.0254C4.75584 2.1134 4.28584 2.32807 3.79318 2.8214C2.25051 4.36407 1.43118 6.96607 7.23251 12.7674C13.0338 18.5687 15.6352 17.7501 17.1785 16.2067C17.6725 15.7127 17.8865 15.2421 17.9752 14.8794C18.0652 14.5074 17.9052 14.1247 17.5752 13.9314C16.7512 13.4494 14.9738 12.4087 14.1498 11.9261Z" fill="#F9BD15"/>
</svg>
