<svg width="20" height="20" viewBox="0 0 20 20" fill="none" xmlns="http://www.w3.org/2000/svg">
<path d="M8.66656 1.99994C8.57825 1.99874 8.49058 2.0151 8.40865 2.04806C8.32671 2.08103 8.25214 2.12995 8.18927 2.19197C8.1264 2.25399 8.07647 2.32789 8.0424 2.40937C8.00833 2.49085 7.99078 2.57829 7.99078 2.66661H3.99989C3.91155 2.66536 3.82384 2.68168 3.74186 2.71462C3.65988 2.74756 3.58527 2.79647 3.52236 2.8585C3.45944 2.92053 3.40949 2.99444 3.37539 3.07595C3.34129 3.15745 3.32373 3.24492 3.32373 3.33327C3.32373 3.42162 3.34129 3.50909 3.37539 3.5906C3.40949 3.6721 3.45944 3.74602 3.52236 3.80805C3.58527 3.87008 3.65988 3.91898 3.74186 3.95193C3.82384 3.98487 3.91155 4.00119 3.99989 3.99994H15.9999C16.0882 4.00119 16.1759 3.98487 16.2579 3.95193C16.3399 3.91898 16.4145 3.87008 16.4774 3.80805C16.5403 3.74602 16.5903 3.6721 16.6244 3.5906C16.6585 3.50909 16.6761 3.42162 16.6761 3.33327C16.6761 3.24492 16.6585 3.15745 16.6244 3.07595C16.5903 2.99444 16.5403 2.92053 16.4774 2.8585C16.4145 2.79647 16.3399 2.74756 16.2579 2.71462C16.1759 2.68168 16.0882 2.66536 15.9999 2.66661H12.009C12.009 2.57829 11.9915 2.49085 11.9574 2.40937C11.9233 2.32789 11.8734 2.25399 11.8105 2.19197C11.7476 2.12995 11.6731 2.08103 11.5911 2.04806C11.5092 2.0151 11.4215 1.99874 11.3332 1.99994H8.66656ZM3.99989 5.33327V15.9999C3.99989 16.7366 4.59656 17.3333 5.33323 17.3333H14.6666C15.4032 17.3333 15.9999 16.7366 15.9999 15.9999V5.33327H3.99989ZM7.99989 8.66661C8.17039 8.66661 8.34091 8.73159 8.47125 8.86192L9.99989 10.3906L11.5285 8.86192C11.7892 8.60125 12.2106 8.60125 12.4712 8.86192C12.7319 9.12259 12.7319 9.54396 12.4712 9.80463L10.9426 11.3333L12.4712 12.8619C12.7319 13.1226 12.7319 13.544 12.4712 13.8046C12.3412 13.9346 12.1706 13.9999 11.9999 13.9999C11.8292 13.9999 11.6585 13.9346 11.5285 13.8046L9.99989 12.276L8.47125 13.8046C8.34125 13.9346 8.17056 13.9999 7.99989 13.9999C7.82923 13.9999 7.65854 13.9346 7.52854 13.8046C7.26787 13.544 7.26787 13.1226 7.52854 12.8619L9.05718 11.3333L7.52854 9.80463C7.26787 9.54396 7.26787 9.12259 7.52854 8.86192C7.65887 8.73159 7.82939 8.66661 7.99989 8.66661Z" fill="black"/>
</svg>
